<?xml version="1.0" standalone="no"?><!DOCTYPE svg PUBLIC "-//W3C//DTD SVG 1.1//EN" "http://www.w3.org/Graphics/SVG/1.1/DTD/svg11.dtd"><svg t="1756896882458" class="icon" viewBox="0 0 1024 1024" version="1.1" xmlns="http://www.w3.org/2000/svg" p-id="4438" width="160" height="160" xmlns:xlink="http://www.w3.org/1999/xlink"><path d="M1020.15173207 835.54746712V188.48882942C1020.15173207 86.93107612 937.06892388 3.84826793 835.51117058 3.84826793H188.48882942C86.93107612 3.84826793 3.84826793 86.93107612 3.84826793 188.48882942v647.0586377c0 100.54144984 81.44946333 183.00721664 181.66424422 184.60426495h652.9749757c100.17848432-1.59704832 181.66424422-84.02651855 181.66424422-184.60426495" fill="#FF2442" p-id="4439"></path><path d="M725.85928609 366.81379083h57.16706986v20.4712555c0 1.63334485 0.79852415 2.39557243 2.35927592 2.3592759 33.90097985-1.01630346 68.05603554 0.0725931 85.55097373 34.8446902 10.41711051 20.61644171 8.27561392 51.97666289 7.69486909 76.58572532-0.03629655 1.45186211 0.65333794 2.25038625 2.03260694 2.39557247 3.99262076 0.36296552 7.87635184 0.72593104 11.65119327 1.19778622 67.40269761 8.09413116 54.08186291 71.64939422 54.29964223 121.59345019 0.10888967 17.4223451-1.85112418 30.16243495-5.80744838 38.29286264-8.34820703 16.84160026-23.30238657 26.49648316-44.86253862 28.89205562H853.91352258l-21.48755896-49.87146284a1.63334485 1.63334485 0 0 1 0.10888965-1.5244552 1.56075176 1.56075176 0 0 1 1.30667589-0.72593104l45.58846969-0.03629655c2.54075865 0 4.93633111-1.08889656 6.67856561-2.9763173a10.09044154 10.09044154 0 0 0 2.68594488-7.00523458c-0.2177793-15.24455196-0.32666897-30.45280737-0.25407588-45.66106278 0-13.68380021-6.46078632-20.6890348-19.49124858-21.05200033-14.73640023-0.36296552-42.64844897-0.36296552-83.77244267 0.07259311-1.45186211 0-2.17779315 0.79852415-2.17779315 2.35927589l-0.21777931 126.42089162H725.78669299l-0.18148275-126.96533989a2.25038625 2.25038625 0 0 0-2.2140897-2.32297937h-53.35593187a2.54075865 2.54075865 0 0 1-2.46816554-2.54075865l0.0725931-55.24335259c0-1.85112418 0.87111727-2.79483453 2.61335175-2.79483452l52.73889048 0.10888966a2.5044621 2.5044621 0 0 0 1.81482762-0.79852415 2.75853797 2.75853797 0 0 0 0.72593105-1.88742072v-47.76626283a3.15780005 3.15780005 0 0 0-3.04891039-3.23039314l-32.55800741 0.14518621c-1.70593796 0-2.54075865-0.9074138-2.54075866-2.68594487l-0.10888966-55.53372502c0-1.63334485 0.72593104-2.43186898 2.3592759-2.43186899h33.71949707c1.45186211 0 2.17779315-0.72593104 2.17779315-2.2866828l0.36296552-20.39866239z m59.1996768 136.9468918l35.46173159-0.0725931c0.58074483 0 1.12519312-0.25407588 1.52445519-0.68963449a2.28668282 2.28668282 0 0 0 0.61704136-1.59704832l-0.18148273-44.39068343c0-3.48446902-2.54075865-6.31560009-5.6259656-6.31560011l-28.456497 0.0725931a5.33559319 5.33559319 0 0 0-3.99262075 1.88742074 6.78745529 6.78745529 0 0 0-1.63334487 4.53706902l0.18148276 44.39068345c0 1.23408277 0.98000693 2.17779315 2.10520005 2.17779314zM418.24600542 507.75330339c-13.79268986 0.25407588-38.72842128 4.10151043-44.17290412-13.64750367-3.30298625-10.59859328 4.17410351-25.37129006 8.71117256-35.71580745 12.92157262-29.43650391 25.58906936-58.98189747 38.03878678-88.63618068 0.50815173-1.19778622 1.37926899-1.81482762 2.61335177-1.81482764h54.55371808c0.47185518 0 0.87111727 0.25407588 1.08889658 0.65333795a1.45186211 1.45186211 0 0 1 0.14518619 1.30667588l-31.57800048 73.7908908c-0.72593104 1.70593796-0.54444828 3.62965524 0.39926207 5.22670353a5.15411043 5.15411043 0 0 0 4.35558627 2.46816555h46.74995938c0.58074483 0 1.08889656 0.29037242 1.41556554 0.76222761 0.29037242 0.50815173 0.36296552 1.08889656 0.10888963 1.63334486-13.50231746 31.46911085-26.96833836 62.72044236-40.39806268 93.75399455-1.34297243 3.08520693-1.92371727 5.37188974-1.70593796 6.82375184 0.47185518 3.15780005 2.25038625 4.75484835 5.29929665 4.79114489l29.58169009 0.1814828c1.70593796 0.03629655 2.25038625 0.87111727 1.56075176 2.54075865l-19.12828308 45.00772483a3.77484145 3.77484145 0 0 1-3.6296552 2.50446212c-30.05354531 0.36296552-51.06924908 0.36296552-63.04711134-0.18148278-19.81791754-0.9074138-24.68165556-18.2571658-16.98678647-36.15136609l27.18611766-63.44637337a1.37926899 1.37926899 0 0 0-0.10888965-1.23408281 1.23408277 1.23408277 0 0 0-1.08889658-0.61704137zM191.57403638 693.44646489h-21.41496585l-20.97940723-49.25442144a1.59704832 1.59704832 0 0 1 0.10888965-1.48815865 1.45186211 1.45186211 0 0 1 1.23408279-0.72593105l29.61798665-0.07259311a6.93264148 6.93264148 0 0 0 6.78745529-7.07782769l0.79852415-261.22628682a2.54075865 2.54075865 0 0 1 2.5044621-2.61335177h50.96035944c2.39557243 0 3.59335867 1.27037934 3.62965521 3.77484143 0.2177793 88.45469793 0.2177793 175.38494067 0 260.82702477-0.14518622 35.06246951-16.40604162 59.01819402-53.2470422 57.85670433z" fill="#FFFFFF" p-id="4440"></path><path d="M669.59963004 693.44646489h-193.31543749l25.91573834-58.43744918a3.44817246 3.44817246 0 0 1 3.37557936-2.21408968l47.33070417 0.0725931c1.6696414 0 2.54075865-0.83482071 2.54075865-2.54075868v-177.30865792c0-1.52445519-0.72593104-2.28668282-2.17779311-2.28668281l-31.39651773-0.03629654c-1.41556554 0-2.54075865-1.23408277-2.54075867-2.72224142v-56.87669745c0-0.87111727 0.65333794-1.59704832 1.48815866-1.59704829h127.98164338c1.59704832 0 2.35927589 0.83482071 2.35927589 2.50446209l0.07259308 56.25965607c0 1.63334485-0.79852415 2.46816555-2.39557243 2.46816554h-31.6505936c-1.45186211 0-2.17779315 0.76222761-2.17779313 2.28668281v177.1997683c0 1.70593796 0.83482071 2.54075865 2.43186899 2.54075865l50.16183528 0.10888965c1.37926899 0 2.06890348 0.72593104 2.06890347 2.17779312L669.59963004 693.48276145zM899.82866123 395.01621196c39.49064888-27.14982111 67.29380795 42.06770411 24.0283176 53.93667672-7.04153113 1.96001383-18.2571658 2.06890348-33.6106074 0.36296551-1.37926899-0.14518622-2.03260692-0.9074138-2.03260695-2.35927589-0.2177793-16.33344852-3.44817246-41.59584893 11.61489675-51.90406978zM354.69074237 598.53098066l-26.13351764 60.86931819c-2.35927589 5.44448285-4.93633111 5.55337252-7.80375874 0.43555862-19.23717272-34.77209709-25.77055213-63.156001-29.54539357-106.38519476-2.90372418-33.57431087-5.4081863-67.14862174-7.58597944-100.79552569-0.0725931-1.52445519 0.61704139-2.28668282 2.06890347-2.2866828l52.95666981 0.03629655c1.48815866 0 2.32297937 0.79852415 2.43186901 2.32297934 2.72224141 39.12768337 5.58966905 78.14647707 8.56598634 117.05638114 0.76222761 10.01784844 2.46816555 18.3297589 5.08151731 24.93573141a4.7185518 4.7185518 0 0 1-0.03629655 3.811138zM76.4413725 596.28059442v-2.5044621a25.62536591 25.62536591 0 0 0 4.7185518-11.46971053c3.92002764-43.19289723 7.11412424-86.34949789 9.61858638-129.54239514 0.10888967-1.34297243 0.76222761-2.03260692 2.03260692-2.03260693h54.08186292c0.47185518 0 0.94371036 0.2177793 1.30667586 0.61704141 0.32666897 0.36296552 0.50815173 0.87111727 0.47185519 1.37926898a7203.77673315 7203.77673315 0 0 1-9.54599326 119.30676737c-2.54075865 28.85575907-11.76008294 67.47529072-31.03355222 90.88656694-1.23408277 1.48815866-2.28668282 1.34297243-3.08520692-0.47185518L76.4413725 596.28059442zM445.2869369 693.44646489h-78.32795985l-9.98155189-3.9563242c-1.41556554-0.54444828-1.81482762-1.52445519-1.16148966-2.94002073l24.57276589-56.25965603c0.72593104-1.63334485 1.88742073-2.25038625 3.55706214-1.81482763 26.85944869 7.29560701 57.96559401 4.28299318 85.44208407 4.39188283 1.70593796 0.03629655 2.17779315 0.87111727 1.45186209 2.46816555l-25.55277279 58.07448367z" fill="#FFFFFF" p-id="4441"></path></svg>