<?xml version="1.0" standalone="no"?><!DOCTYPE svg PUBLIC "-//W3C//DTD SVG 1.1//EN" "http://www.w3.org/Graphics/SVG/1.1/DTD/svg11.dtd"><svg t="1755406026390" class="icon" viewBox="0 0 1024 1024" version="1.1" xmlns="http://www.w3.org/2000/svg" p-id="13261" width="160" height="160" xmlns:xlink="http://www.w3.org/1999/xlink"><path d="M845.3 374.3v450c0 51.7-38.9 93.9-86.4 93.9H265.6c-47.5 0-86.4-42.3-86.4-94V210.3c0-51.7 38.9-94 86.4-94h337.9" fill="#cdcdcd" opacity=".7" p-id="13262"></path><path d="M603.5 116.3l241.7 257.9H695.7c-49.2 0-89.3-39.6-90-88.8l-2.2-169.1z" fill="#cdcdcd" opacity=".7" p-id="13263"></path><path d="M639.8 536.5H384.6c-22 0-40-18-40-40s18-40 40-40h255.2c22 0 40 18 40 40s-18 40-40 40zM639.8 737.5H384.6c-22 0-40-18-40-40s18-40 40-40h255.2c22 0 40 18 40 40s-18 40-40 40z" fill="#ffffff" p-id="13264" data-spm-anchor-id="a313x.search_index.0.i18.6c6c3a81tncDrS" class="selected"></path></svg>