<?xml version="1.0" standalone="no"?><!DOCTYPE svg PUBLIC "-//W3C//DTD SVG 1.1//EN" "http://www.w3.org/Graphics/SVG/1.1/DTD/svg11.dtd"><svg t="1753608205383" class="icon" viewBox="0 0 1024 1024" version="1.1" xmlns="http://www.w3.org/2000/svg" p-id="2730" xmlns:xlink="http://www.w3.org/1999/xlink" width="160" height="160"><path d="M206.30949594 53.44230122h611.38100812c84.3584954 0 152.77763267 68.41913728 152.77763267 152.86719472v611.38100811c0 84.44805745-68.41913728 152.86719472-152.86719472 152.86719473H206.30949594C121.86143849 970.46813673 53.44230122 902.04899945 53.44230122 817.600942V206.30949594C53.44230122 121.86143849 121.86143849 53.44230122 206.30949594 53.44230122z" fill="#02C160" p-id="2731"></path><path d="M716.67436286 676.55414671c-6.00065739-10.11961608-14.59771861-18.71667732-25.25470702-24.7164391l-54.17966685-30.09016212c-34.56736902-19.16448757-66.35831449-42.89574411-94.65813121-70.38860676v-13.79166015c27.58332033-31.79094546 45.85218739-82.29856825 45.85218739-132.62796255 0-45.40348152-6.09021943-80.59868052-24.98602086-103.88212682-17.01499837-20.95572859-44.23917487-33.76131057-89.64265638-33.76131057s-72.62765802 12.80558197-89.6426564 33.76131057c-18.89580143 23.28344627-24.98512523 58.47864529-24.98512523 103.88212682 0 50.32849867 18.26886706 100.83701708 45.85129177 132.62796254v13.79166016c-28.29892112 27.49286266-60.18032426 51.22411918-94.65813122 70.38860676l-54.17966685 30.09016212c-10.65698838 5.91109534-19.34361168 14.50726094-25.25381139 24.7164391-6.00065739 10.11961608-9.31445325 21.85134908-9.31445327 34.11955878 0 12.6273535 5.10503688 24.09040034 13.43430758 32.41877543 8.32747947 8.32837507 19.79052631 13.43251634 32.41787981 13.43251635h412.66162599c12.62645788 0 24.08950473-5.10503688 32.41787982-13.43251635s13.43341197-19.79142192 13.43341196-32.41877543c-0.08956204-12.26820968-3.40335792-23.99994269-9.31445325-34.11955878z" fill="#FFFFFF" p-id="2732"></path><path d="M759.30142081 621.3892973l-38.41853719-17.82105682a308.42125097 308.42125097 0 0 1-87.67229128-60.98548709v-21.76178703c23.10432219-24.08950473 38.41853721-65.01577936 38.41853719-105.58291014 0-57.76214889-10.83700812-94.83725531-66.18008599-100.92747476 9.13443355 23.37390394 13.43251634 52.65800763 13.43251633 90.71740097 0 49.0755256-15.58200556 99.85273016-41.4627513 137.19652278a421.94294127 421.94294127 0 0 0 74.5084611 52.83623608l54.17966687 30.09016213c15.22375734 8.50749918 27.94067292 20.86527091 36.80642026 35.91079979 6.26934353 10.56742634 10.2987402 22.20870168 12.17864764 34.29868286h1.34343077c16.92633193 0 30.53797238-13.70120249 30.53797236-30.53797236a47.51266781 47.51266781 0 0 0-27.67198676-43.43311641z" fill="#FFFFFF" p-id="2733"></path></svg>