<?xml version="1.0" standalone="no"?><!DOCTYPE svg PUBLIC "-//W3C//DTD SVG 1.1//EN" "http://www.w3.org/Graphics/SVG/1.1/DTD/svg11.dtd"><svg t="1753608201818" class="icon" viewBox="0 0 1024 1024" version="1.1" xmlns="http://www.w3.org/2000/svg" p-id="2572" xmlns:xlink="http://www.w3.org/1999/xlink" width="160" height="160"><path d="M175.72405569 53.44230122h672.55188862A122.28175447 122.28175447 0 0 1 970.55769878 175.72405569v672.55188862A122.28175447 122.28175447 0 0 1 848.27594431 970.55769878H175.72405569A122.28175447 122.28175447 0 0 1 53.44230122 848.27594431V175.72405569A122.28175447 122.28175447 0 0 1 175.72405569 53.44230122z" fill="#6467ef" p-id="2573"></path><path d="M236.86538072 587.2034626c2.017833-47.26189408 43.89883907-85.29173197 102.04431355-110.51240541 24.76211572-10.88268477 48.23991167-11.18898698 61.44673164 17.05798815 15.43781066 32.74119882-10.91403148 43.56298139-32.71074774 52.73413536-43.53163466 18.55725687-65.2978998 48.91341829-44.02153908 92.99585956 20.11563655 41.42244837 60.34690967 49.73828477 102.01386244 35.21758952 35.0035362-12.16700457 49.43287819-39.74226431 48.57666498-77.28309342-1.34522201-61.44583601-1.22252199-122.89256765 0-184.18704379 1.43657528-73.4605851 35.7979516-120.75293026 102.80827781-144.59793061 61.63033384-22.01076954 138.88208055-1.65152421 180.39677781 47.44460065 65.02383994 76.64093351 16.96663486 210.20302825-82.57083687 230.25776261-21.79671625 4.34107259-40.56713079 0.30540661-50.13504464-20.69689426-8.71259627-19.19762553 3.69891269-33.5356142 17.27204143-45.39721218 6.54161217-5.68539896 14.73474855-9.32340946 22.25527393-13.66448205 32.71074772-19.01491895 59.48980085-42.9208215 43.22712371-84.31371438-15.04105076-38.42659777-49.73828477-47.90405398-87.43226498-42.92082149-42.9208215 5.50269238-66.67446852 30.87651693-66.82672402 75.2948159-0.33675331 67.95878833 2.14053301 136.10028325-1.2234176 204.05817595-3.66846158 75.99877361-85.26038526 143.742613-163.97915835 141.11396683-84.4364144-3.24035498-152.60836039-71.07644332-151.14133402-172.57084585" fill="#FFFFFF" p-id="2574"></path></svg>